<svg width="39" height="40" viewBox="0 0 39 40" fill="none" xmlns="http://www.w3.org/2000/svg">
<path d="M10.6292 3.03167C2.75424 5.27167 -1.23576 12.0967 0.339236 20.6017C0.514236 21.6517 0.864236 22.8767 1.07424 23.3667C4.46924 31.1367 9.92924 36.1067 17.8392 38.6267C20.9892 39.6417 26.0642 39.7817 28.8292 38.9417C34.0092 37.3667 37.1592 34.0067 38.3142 28.8267C38.8742 26.2367 38.8742 25.9567 38.3142 23.0867C37.7542 20.2517 36.1442 16.1567 35.2342 15.1067C34.9892 14.8617 34.3592 14.0917 33.7992 13.4267C32.6792 11.9917 32.3642 11.8867 31.8392 12.8667C31.5592 13.4267 31.6992 13.8117 32.6442 15.0717C33.3092 15.9467 34.2892 17.6967 34.8142 19.0267C35.6542 21.0567 35.7942 21.9317 35.7942 24.5917C35.8292 28.4417 35.0242 30.4367 32.5742 32.8167C30.1942 35.1267 26.9392 36.1417 22.8092 35.8617C21.1292 35.7567 19.0642 35.4067 18.1892 35.0567C16.1242 34.2167 13.0092 32.5717 12.2742 31.9067C8.52924 28.4417 6.81424 26.0267 5.76424 22.7367C4.88924 20.1117 5.16924 15.7017 6.32424 13.6017C7.37424 11.6767 9.57924 9.78666 11.7842 8.94666C13.1492 8.42167 14.1992 8.31667 17.2792 8.38667L21.0942 8.49166L22.0742 7.26667C22.6342 6.56667 23.1242 5.51667 23.1592 4.85167C23.2642 3.55666 23.3342 3.59167 19.8342 2.75167C17.4542 2.19167 13.1142 2.33167 10.6292 3.03167Z" fill="#135C70"/>
<path d="M23.6843 0.441517C24.7693 4.81652 22.6693 9.36652 19.1693 10.2415C17.6643 10.6265 18.0143 11.0115 20.0093 11.2565C23.5443 11.7465 28.7593 15.4215 29.9493 18.3265C30.6843 20.0765 31.1043 20.0415 30.7193 18.2215C30.3343 16.5415 30.7893 13.2515 31.4893 12.4115C31.6993 12.2015 32.1193 11.6415 32.4693 11.2565C33.1343 10.4515 35.5493 9.05152 36.3893 8.98152C36.6693 8.98152 35.8643 8.73652 34.5693 8.49152C30.2993 7.65152 26.7293 5.06152 24.5243 1.28152C23.6843 -0.118484 23.4743 -0.328484 23.6843 0.441517Z" fill="#19B5CE"/>
</svg>
